<svg xmlns="http://www.w3.org/2000/svg" width="300" height="270" viewBox="0 0 300 270">
  <g id="mochiheart" transform="translate(-6890 -330)">
    <g id="light">
      <rect id="Rectangle_434" data-name="Rectangle 434" width="30" height="30" transform="translate(6980 390)" fill="#f0eff9"/>
      <rect id="Rectangle_435" data-name="Rectangle 435" width="30" height="30" transform="translate(6950 420)" fill="#f0eff9"/>
    </g>
    <g id="heart-inside">
      <rect id="Rectangle_430" data-name="Rectangle 430" width="30" height="30" transform="translate(7100 360)" fill="#dd1c32"/>
      <rect id="Rectangle_431" data-name="Rectangle 431" width="30" height="30" transform="translate(7070 360)" fill="#f43846"/>
      <rect id="Rectangle_434-2" data-name="Rectangle 434" width="30" height="30" transform="translate(6980 360)" fill="#f95d44"/>
      <rect id="Rectangle_435-2" data-name="Rectangle 435" width="30" height="30" transform="translate(6950 360)" fill="#f95d44"/>
      <rect id="Rectangle_429" data-name="Rectangle 429" width="30" height="30" transform="translate(7130 390)" fill="#dd1c32"/>
      <rect id="Rectangle_431-2" data-name="Rectangle 431" width="30" height="30" transform="translate(7070 390)" fill="#f43846"/>
      <rect id="Rectangle_432" data-name="Rectangle 432" width="30" height="30" transform="translate(7040 390)" fill="#f44a43"/>
      <rect id="Rectangle_433" data-name="Rectangle 433" width="30" height="30" transform="translate(7010 390)" fill="#f44a43"/>
      <rect id="Rectangle_435-3" data-name="Rectangle 435" width="30" height="30" transform="translate(6950 390)" fill="#f95d44"/>
      <rect id="Rectangle_436" data-name="Rectangle 436" width="30" height="30" transform="translate(6920 390)" fill="#f95d44"/>
      <rect id="Rectangle_429-2" data-name="Rectangle 429" width="30" height="30" transform="translate(7130 420)" fill="#dd1c32"/>
      <rect id="Rectangle_431-3" data-name="Rectangle 431" width="30" height="30" transform="translate(7070 420)" fill="#f43846"/>
      <rect id="Rectangle_432-2" data-name="Rectangle 432" width="30" height="30" transform="translate(7040 420)" fill="#f43846"/>
      <rect id="Rectangle_433-2" data-name="Rectangle 433" width="30" height="30" transform="translate(7010 420)" fill="#f44a43"/>
      <rect id="Rectangle_434-3" data-name="Rectangle 434" width="30" height="30" transform="translate(6980 420)" fill="#f44a43"/>
      <rect id="Rectangle_436-2" data-name="Rectangle 436" width="30" height="30" transform="translate(6920 420)" fill="#f95d44"/>
      <rect id="Rectangle_429-3" data-name="Rectangle 429" width="30" height="30" transform="translate(7130 450)" fill="#dd1c32"/>
      <rect id="Rectangle_432-3" data-name="Rectangle 432" width="30" height="30" transform="translate(7040 450)" fill="#f43846"/>
      <rect id="Rectangle_433-3" data-name="Rectangle 433" width="30" height="30" transform="translate(7010 450)" fill="#f43846"/>
      <rect id="Rectangle_434-4" data-name="Rectangle 434" width="30" height="30" transform="translate(6980 450)" fill="#f44a43"/>
      <rect id="Rectangle_435-4" data-name="Rectangle 435" width="30" height="30" transform="translate(6950 450)" fill="#f44a43"/>
      <rect id="Rectangle_436-3" data-name="Rectangle 436" width="30" height="30" transform="translate(6920 450)" fill="#f44a43"/>
      <rect id="Rectangle_430-2" data-name="Rectangle 430" width="30" height="30" transform="translate(7100 480)" fill="#dd1c32"/>
      <rect id="Rectangle_433-4" data-name="Rectangle 433" width="30" height="30" transform="translate(7010 480)" fill="#f43846"/>
      <rect id="Rectangle_434-5" data-name="Rectangle 434" width="30" height="30" transform="translate(6980 480)" fill="#f43846"/>
      <rect id="Rectangle_435-5" data-name="Rectangle 435" width="30" height="30" transform="translate(6950 480)" fill="#f44a43"/>
      <rect id="Rectangle_431-4" data-name="Rectangle 431" width="30" height="30" transform="translate(7070 510)" fill="#dd1c32"/>
      <rect id="Rectangle_434-6" data-name="Rectangle 434" width="30" height="30" transform="translate(6980 510)" fill="#f43846"/>
      <rect id="Rectangle_432-4" data-name="Rectangle 432" width="30" height="30" transform="translate(7040 540)" fill="#dd1c32"/>
      <g id="Group_21" data-name="Group 21">
        <rect id="Rectangle_430-3" data-name="Rectangle 430" width="30" height="30" transform="translate(7100 390)" fill="#ed2b41"/>
        <rect id="Rectangle_430-4" data-name="Rectangle 430" width="30" height="30" transform="translate(7100 420)" fill="#ed2b41"/>
        <rect id="Rectangle_430-5" data-name="Rectangle 430" width="30" height="30" transform="translate(7100 450)" fill="#ed2b41"/>
        <rect id="Rectangle_431-5" data-name="Rectangle 431" width="30" height="30" transform="translate(7070 450)" fill="#ed2b41"/>
        <rect id="Rectangle_431-6" data-name="Rectangle 431" width="30" height="30" transform="translate(7070 480)" fill="#ed2b41"/>
        <rect id="Rectangle_432-5" data-name="Rectangle 432" width="30" height="30" transform="translate(7040 480)" fill="#ed2b41"/>
        <rect id="Rectangle_432-6" data-name="Rectangle 432" width="30" height="30" transform="translate(7040 510)" fill="#ed2b41"/>
        <rect id="Rectangle_433-5" data-name="Rectangle 433" width="30" height="30" transform="translate(7010 510)" fill="#ed2b41"/>
        <rect id="Rectangle_433-6" data-name="Rectangle 433" width="30" height="30" transform="translate(7010 540)" fill="#ed2b41"/>
      </g>
    </g>
    <g id="outline">
      <rect id="Rectangle_429-4" data-name="Rectangle 429" width="30" height="30" transform="translate(7130 360)" fill="#1b1924"/>
      <rect id="Rectangle_432-7" data-name="Rectangle 432" width="30" height="30" transform="translate(7040 360)" fill="#1b1924"/>
      <rect id="Rectangle_433-7" data-name="Rectangle 433" width="30" height="30" transform="translate(7010 360)" fill="#1b1924"/>
      <rect id="Rectangle_436-4" data-name="Rectangle 436" width="30" height="30" transform="translate(6920 360)" fill="#1b1924"/>
      <rect id="Rectangle_432-8" data-name="Rectangle 432" width="30" height="30" transform="translate(6980 330)" fill="#1b1924"/>
      <rect id="Rectangle_433-8" data-name="Rectangle 433" width="30" height="30" transform="translate(6950 330)" fill="#1b1924"/>
      <rect id="Rectangle_432-9" data-name="Rectangle 432" width="30" height="30" transform="translate(7100 330)" fill="#1b1924"/>
      <rect id="Rectangle_433-9" data-name="Rectangle 433" width="30" height="30" transform="translate(7070 330)" fill="#1b1924"/>
      <rect id="Rectangle_436-5" data-name="Rectangle 436" width="30" height="30" transform="translate(6890 390)" fill="#1b1924"/>
      <rect id="Rectangle_436-6" data-name="Rectangle 436" width="30" height="30" transform="translate(6890 420)" fill="#1b1924"/>
      <rect id="Rectangle_436-7" data-name="Rectangle 436" width="30" height="30" transform="translate(6890 450)" fill="#1b1924"/>
      <rect id="Rectangle_436-8" data-name="Rectangle 436" width="30" height="30" transform="translate(7160 390)" fill="#1b1924"/>
      <rect id="Rectangle_436-9" data-name="Rectangle 436" width="30" height="30" transform="translate(7160 420)" fill="#1b1924"/>
      <rect id="Rectangle_436-10" data-name="Rectangle 436" width="30" height="30" transform="translate(7160 450)" fill="#1b1924"/>
      <rect id="Rectangle_429-5" data-name="Rectangle 429" width="30" height="30" transform="translate(7130 480)" fill="#1b1924"/>
      <rect id="Rectangle_436-11" data-name="Rectangle 436" width="30" height="30" transform="translate(6920 480)" fill="#1b1924"/>
      <rect id="Rectangle_430-6" data-name="Rectangle 430" width="30" height="30" transform="translate(7100 510)" fill="#1b1924"/>
      <rect id="Rectangle_435-6" data-name="Rectangle 435" width="30" height="30" transform="translate(6950 510)" fill="#1b1924"/>
      <rect id="Rectangle_431-7" data-name="Rectangle 431" width="30" height="30" transform="translate(7070 540)" fill="#1b1924"/>
      <rect id="Rectangle_434-7" data-name="Rectangle 434" width="30" height="30" transform="translate(6980 540)" fill="#1b1924"/>
      <rect id="Rectangle_432-10" data-name="Rectangle 432" width="30" height="30" transform="translate(7040 570)" fill="#1b1924"/>
      <rect id="Rectangle_433-10" data-name="Rectangle 433" width="30" height="30" transform="translate(7010 570)" fill="#1b1924"/>
    </g>
  </g>
</svg>
