<svg xmlns="http://www.w3.org/2000/svg" xmlns:xlink="http://www.w3.org/1999/xlink" width="315" height="321" viewBox="0 0 315 321">
  <defs>
    <linearGradient id="linear-gradient" x1="0.057" y1="0.042" x2="0.928" y2="0.941" gradientUnits="objectBoundingBox">
      <stop offset="0" stop-color="#8e478d"/>
      <stop offset="1" stop-color="#2a0d5a"/>
    </linearGradient>
    <linearGradient id="linear-gradient-2" x1="0.057" y1="0.042" x2="1" y2="1" gradientUnits="objectBoundingBox">
      <stop offset="0" stop-color="#aa54a9"/>
      <stop offset="1" stop-color="#371979"/>
    </linearGradient>
    <linearGradient id="linear-gradient-3" x1="0.168" y1="0.138" x2="0.858" y2="0.868" gradientUnits="objectBoundingBox">
      <stop offset="0" stop-color="#fff"/>
      <stop offset="1" stop-color="#e7e6f5"/>
    </linearGradient>
    <filter id="Ellipse_2" x="3" y="3" width="127" height="127" filterUnits="userSpaceOnUse">
      <feOffset dy="3" input="SourceAlpha"/>
      <feGaussianBlur stdDeviation="10" result="blur"/>
      <feFlood flood-opacity="0.161"/>
      <feComposite operator="in" in2="blur"/>
      <feComposite in="SourceGraphic"/>
    </filter>
    <filter id="Ellipse_4" x="3" y="177" width="127" height="127" filterUnits="userSpaceOnUse">
      <feOffset dy="3" input="SourceAlpha"/>
      <feGaussianBlur stdDeviation="10" result="blur-2"/>
      <feFlood flood-opacity="0.161"/>
      <feComposite operator="in" in2="blur-2"/>
      <feComposite in="SourceGraphic"/>
    </filter>
    <filter id="Ellipse_2-2" x="171" y="3" width="127" height="127" filterUnits="userSpaceOnUse">
      <feOffset dy="3" input="SourceAlpha"/>
      <feGaussianBlur stdDeviation="10" result="blur-3"/>
      <feFlood flood-opacity="0.161"/>
      <feComposite operator="in" in2="blur-3"/>
      <feComposite in="SourceGraphic"/>
    </filter>
    <filter id="Ellipse_4-2" x="171" y="177" width="127" height="127" filterUnits="userSpaceOnUse">
      <feOffset dy="3" input="SourceAlpha"/>
      <feGaussianBlur stdDeviation="10" result="blur-4"/>
      <feFlood flood-opacity="0.161"/>
      <feComposite operator="in" in2="blur-4"/>
      <feComposite in="SourceGraphic"/>
    </filter>
    <filter id="Ellipse_6" x="87" y="90" width="127" height="127" filterUnits="userSpaceOnUse">
      <feOffset dy="3" input="SourceAlpha"/>
      <feGaussianBlur stdDeviation="10" result="blur-5"/>
      <feFlood flood-opacity="0.161"/>
      <feComposite operator="in" in2="blur-5"/>
      <feComposite in="SourceGraphic"/>
    </filter>
    <filter id="Ellipse_2-3" x="3" y="3" width="127" height="127" filterUnits="userSpaceOnUse">
      <feOffset dy="3" input="SourceAlpha"/>
      <feGaussianBlur stdDeviation="10" result="blur-6"/>
      <feFlood flood-opacity="0.161"/>
      <feComposite operator="in" in2="blur-6"/>
      <feComposite in="SourceGraphic"/>
    </filter>
    <filter id="Ellipse_4-3" x="3" y="177" width="127" height="127" filterUnits="userSpaceOnUse">
      <feOffset dy="3" input="SourceAlpha"/>
      <feGaussianBlur stdDeviation="10" result="blur-7"/>
      <feFlood flood-opacity="0.161"/>
      <feComposite operator="in" in2="blur-7"/>
      <feComposite in="SourceGraphic"/>
    </filter>
    <filter id="Ellipse_2-4" x="171" y="3" width="127" height="127" filterUnits="userSpaceOnUse">
      <feOffset dy="3" input="SourceAlpha"/>
      <feGaussianBlur stdDeviation="10" result="blur-8"/>
      <feFlood flood-opacity="0.161"/>
      <feComposite operator="in" in2="blur-8"/>
      <feComposite in="SourceGraphic"/>
    </filter>
    <filter id="Ellipse_4-4" x="171" y="177" width="127" height="127" filterUnits="userSpaceOnUse">
      <feOffset dy="3" input="SourceAlpha"/>
      <feGaussianBlur stdDeviation="10" result="blur-9"/>
      <feFlood flood-opacity="0.161"/>
      <feComposite operator="in" in2="blur-9"/>
      <feComposite in="SourceGraphic"/>
    </filter>
    <filter id="Ellipse_6-2" x="87" y="90" width="127" height="127" filterUnits="userSpaceOnUse">
      <feOffset dy="3" input="SourceAlpha"/>
      <feGaussianBlur stdDeviation="10" result="blur-10"/>
      <feFlood flood-opacity="0.161"/>
      <feComposite operator="in" in2="blur-10"/>
      <feComposite in="SourceGraphic"/>
    </filter>
  </defs>
  <g id="dice_purple5" transform="translate(-768 -1229)">
    <g id="bg" transform="translate(0 794)">
      <rect id="Rectangle_390" data-name="Rectangle 390" width="315" height="301" rx="40" transform="translate(768 455)" fill="url(#linear-gradient)"/>
      <rect id="Rectangle_391" data-name="Rectangle 391" width="315" height="301" rx="40" transform="translate(768 435)" fill="url(#linear-gradient-2)"/>
    </g>
    <g id="Dots" transform="translate(-7 774)">
      <g transform="matrix(1, 0, 0, 1, 775, 455)" filter="url(#Ellipse_2)">
        <circle id="Ellipse_2-5" data-name="Ellipse 2" cx="33.5" cy="33.5" r="33.5" transform="translate(33 30)" fill="url(#linear-gradient-3)"/>
      </g>
      <g transform="matrix(1, 0, 0, 1, 775, 455)" filter="url(#Ellipse_4)">
        <circle id="Ellipse_4-5" data-name="Ellipse 4" cx="33.5" cy="33.5" r="33.5" transform="translate(33 204)" fill="url(#linear-gradient-3)"/>
      </g>
      <g transform="matrix(1, 0, 0, 1, 775, 455)" filter="url(#Ellipse_2-2)">
        <circle id="Ellipse_2-6" data-name="Ellipse 2" cx="33.5" cy="33.5" r="33.5" transform="translate(201 30)" fill="url(#linear-gradient-3)"/>
      </g>
      <g transform="matrix(1, 0, 0, 1, 775, 455)" filter="url(#Ellipse_4-2)">
        <circle id="Ellipse_4-6" data-name="Ellipse 4" cx="33.5" cy="33.5" r="33.5" transform="translate(201 204)" fill="url(#linear-gradient-3)"/>
      </g>
      <g transform="matrix(1, 0, 0, 1, 775, 455)" filter="url(#Ellipse_6)">
        <circle id="Ellipse_6-3" data-name="Ellipse 6" cx="33.5" cy="33.5" r="33.5" transform="translate(117 117)" fill="url(#linear-gradient-3)"/>
      </g>
    </g>
    <g id="Dots-2" data-name="Dots" transform="translate(-7 774)">
      <g transform="matrix(1, 0, 0, 1, 775, 455)" filter="url(#Ellipse_2-3)">
        <circle id="Ellipse_2-7" data-name="Ellipse 2" cx="33.5" cy="33.5" r="33.5" transform="translate(33 30)" fill="url(#linear-gradient-3)"/>
      </g>
      <g transform="matrix(1, 0, 0, 1, 775, 455)" filter="url(#Ellipse_4-3)">
        <circle id="Ellipse_4-7" data-name="Ellipse 4" cx="33.5" cy="33.5" r="33.5" transform="translate(33 204)" fill="url(#linear-gradient-3)"/>
      </g>
      <g transform="matrix(1, 0, 0, 1, 775, 455)" filter="url(#Ellipse_2-4)">
        <circle id="Ellipse_2-8" data-name="Ellipse 2" cx="33.5" cy="33.5" r="33.5" transform="translate(201 30)" fill="url(#linear-gradient-3)"/>
      </g>
      <g transform="matrix(1, 0, 0, 1, 775, 455)" filter="url(#Ellipse_4-4)">
        <circle id="Ellipse_4-8" data-name="Ellipse 4" cx="33.5" cy="33.5" r="33.5" transform="translate(201 204)" fill="url(#linear-gradient-3)"/>
      </g>
      <g transform="matrix(1, 0, 0, 1, 775, 455)" filter="url(#Ellipse_6-2)">
        <circle id="Ellipse_6-4" data-name="Ellipse 6" cx="33.5" cy="33.5" r="33.5" transform="translate(117 117)" fill="url(#linear-gradient-3)"/>
      </g>
    </g>
  </g>
</svg>
