<svg xmlns="http://www.w3.org/2000/svg" xmlns:xlink="http://www.w3.org/1999/xlink" width="315" height="321" viewBox="0 0 315 321">
  <defs>
    <linearGradient id="linear-gradient" x1="0.057" y1="0.042" x2="0.928" y2="0.941" gradientUnits="objectBoundingBox">
      <stop offset="0" stop-color="#5e5efd"/>
      <stop offset="1" stop-color="#2f1aa2"/>
    </linearGradient>
    <linearGradient id="linear-gradient-2" x1="0.057" y1="0.042" x2="1" y2="1" gradientUnits="objectBoundingBox">
      <stop offset="0" stop-color="#7693fe"/>
      <stop offset="1" stop-color="#532eed"/>
    </linearGradient>
    <linearGradient id="linear-gradient-3" x1="0.168" y1="0.138" x2="0.858" y2="0.868" gradientUnits="objectBoundingBox">
      <stop offset="0" stop-color="#fff"/>
      <stop offset="1" stop-color="#e7e6f5"/>
    </linearGradient>
    <filter id="Ellipse_2" x="10" y="3" width="127" height="127" filterUnits="userSpaceOnUse">
      <feOffset dy="3" input="SourceAlpha"/>
      <feGaussianBlur stdDeviation="10" result="blur"/>
      <feFlood flood-opacity="0.161"/>
      <feComposite operator="in" in2="blur"/>
      <feComposite in="SourceGraphic"/>
    </filter>
    <filter id="Ellipse_3" x="10" y="90" width="127" height="127" filterUnits="userSpaceOnUse">
      <feOffset dy="3" input="SourceAlpha"/>
      <feGaussianBlur stdDeviation="10" result="blur-2"/>
      <feFlood flood-opacity="0.161"/>
      <feComposite operator="in" in2="blur-2"/>
      <feComposite in="SourceGraphic"/>
    </filter>
    <filter id="Ellipse_4" x="10" y="177" width="127" height="127" filterUnits="userSpaceOnUse">
      <feOffset dy="3" input="SourceAlpha"/>
      <feGaussianBlur stdDeviation="10" result="blur-3"/>
      <feFlood flood-opacity="0.161"/>
      <feComposite operator="in" in2="blur-3"/>
      <feComposite in="SourceGraphic"/>
    </filter>
    <filter id="Ellipse_2-2" x="178" y="3" width="127" height="127" filterUnits="userSpaceOnUse">
      <feOffset dy="3" input="SourceAlpha"/>
      <feGaussianBlur stdDeviation="10" result="blur-4"/>
      <feFlood flood-opacity="0.161"/>
      <feComposite operator="in" in2="blur-4"/>
      <feComposite in="SourceGraphic"/>
    </filter>
    <filter id="Ellipse_3-2" x="178" y="90" width="127" height="127" filterUnits="userSpaceOnUse">
      <feOffset dy="3" input="SourceAlpha"/>
      <feGaussianBlur stdDeviation="10" result="blur-5"/>
      <feFlood flood-opacity="0.161"/>
      <feComposite operator="in" in2="blur-5"/>
      <feComposite in="SourceGraphic"/>
    </filter>
    <filter id="Ellipse_4-2" x="178" y="177" width="127" height="127" filterUnits="userSpaceOnUse">
      <feOffset dy="3" input="SourceAlpha"/>
      <feGaussianBlur stdDeviation="10" result="blur-6"/>
      <feFlood flood-opacity="0.161"/>
      <feComposite operator="in" in2="blur-6"/>
      <feComposite in="SourceGraphic"/>
    </filter>
  </defs>
  <g id="dice_bluepurple6" transform="translate(-420 -455)">
    <rect id="bg" width="315" height="301" rx="40" transform="translate(420 475)" fill="url(#linear-gradient)"/>
    <rect id="bg-2" data-name="bg" width="315" height="301" rx="40" transform="translate(420 455)" fill="url(#linear-gradient-2)"/>
    <g id="Dot" transform="translate(460 485)">
      <g transform="matrix(1, 0, 0, 1, -40, -30)" filter="url(#Ellipse_2)">
        <circle id="Ellipse_2-3" data-name="Ellipse 2" cx="33.5" cy="33.5" r="33.5" transform="translate(40 30)" fill="url(#linear-gradient-3)"/>
      </g>
      <g transform="matrix(1, 0, 0, 1, -40, -30)" filter="url(#Ellipse_3)">
        <circle id="Ellipse_3-3" data-name="Ellipse 3" cx="33.5" cy="33.5" r="33.5" transform="translate(40 117)" fill="url(#linear-gradient-3)"/>
      </g>
      <g transform="matrix(1, 0, 0, 1, -40, -30)" filter="url(#Ellipse_4)">
        <circle id="Ellipse_4-3" data-name="Ellipse 4" cx="33.5" cy="33.5" r="33.5" transform="translate(40 204)" fill="url(#linear-gradient-3)"/>
      </g>
    </g>
    <g id="Dot-2" data-name="Dot" transform="translate(628 485)">
      <g transform="matrix(1, 0, 0, 1, -208, -30)" filter="url(#Ellipse_2-2)">
        <circle id="Ellipse_2-4" data-name="Ellipse 2" cx="33.5" cy="33.5" r="33.5" transform="translate(208 30)" fill="url(#linear-gradient-3)"/>
      </g>
      <g transform="matrix(1, 0, 0, 1, -208, -30)" filter="url(#Ellipse_3-2)">
        <circle id="Ellipse_3-4" data-name="Ellipse 3" cx="33.5" cy="33.5" r="33.5" transform="translate(208 117)" fill="url(#linear-gradient-3)"/>
      </g>
      <g transform="matrix(1, 0, 0, 1, -208, -30)" filter="url(#Ellipse_4-2)">
        <circle id="Ellipse_4-4" data-name="Ellipse 4" cx="33.5" cy="33.5" r="33.5" transform="translate(208 204)" fill="url(#linear-gradient-3)"/>
      </g>
    </g>
  </g>
</svg>
